<svg xmlns="http://www.w3.org/2000/svg" width="1792" height="1792" id="balance"><path d="m1423.059 527.059-316.235 579.765h632.47zm-1054.118 0L52.706 1106.824h632.47zM1045.06 368.94q-11.53 32.941-37.47 58.883-25.942 25.94-58.883 37.47v1063.177h500.706q11.53 0 18.94 7.411 7.413 7.412 7.413 18.942v52.706q0 11.529-7.412 18.94-7.412 7.412-18.941 7.412H342.588q-11.53 0-18.94-7.411-7.413-7.412-7.413-18.941v-52.706q0-11.53 7.412-18.942 7.412-7.411 18.941-7.411h500.706V465.294q-32.941-11.53-58.882-37.47-25.941-25.942-37.47-58.883H342.587q-11.53 0-18.94-7.412-7.413-7.411-7.413-18.94v-52.707q0-11.53 7.412-18.94 7.412-7.413 18.941-7.413h404.353q17.294-46.94 57.647-76.176 40.353-29.235 91.412-29.235 51.059 0 91.412 29.235 40.353 29.235 57.647 76.176h404.353q11.53 0 18.94 7.412 7.413 7.412 7.413 18.941v52.706q0 11.53-7.412 18.941-7.412 7.412-18.941 7.412h-404.353zM896 382.118q27.176 0 46.53-19.353 19.352-19.353 19.352-46.53 0-27.176-19.353-46.53-19.353-19.352-46.529-19.352-27.176 0-46.53 19.353-19.352 19.353-19.352 46.53 0 27.176 19.353 46.529 19.353 19.353 46.529 19.353zm896 724.706q0 60.117-38.294 107.882-38.294 47.765-96.765 74.941-58.47 27.177-119 40.765Q1477.411 1344 1423.06 1344q-54.353 0-114.882-13.588-60.53-13.588-119-40.765-58.471-27.176-96.765-74.941-38.294-47.765-38.294-107.882 0-9.06 28.823-66.706 28.824-57.647 75.765-143.706 46.941-86.06 88.118-161 41.176-74.941 84-151.53 42.823-76.588 46.117-82.353 14.824-27.176 46.118-27.176 31.294 0 46.118 27.176 3.294 5.765 46.117 82.353 42.824 76.589 84 151.53 41.177 74.94 88.118 161 46.94 86.059 75.765 143.706 28.823 57.647 28.823 66.706zm-1054.118 0q0 60.117-38.294 107.882-38.294 47.765-96.764 74.941-58.471 27.177-119 40.765Q423.294 1344 368.94 1344q-54.353 0-114.882-13.588-60.53-13.588-119-40.765-58.47-27.176-96.765-74.941Q0 1166.94 0 1106.824q0-9.06 28.824-66.706 28.823-57.647 75.764-143.706 46.941-86.06 88.118-161 41.176-74.941 84-151.53 42.823-76.588 46.118-82.353 14.823-27.176 46.117-27.176 31.294 0 46.118 27.176 3.294 5.765 46.117 82.353 42.824 76.589 84 151.53 41.177 74.94 88.118 161 46.941 86.059 75.765 143.706 28.823 57.647 28.823 66.706z"></path></svg>