<svg width="50" height="50" viewBox="0 0 50 50" fill="none" xmlns="http://www.w3.org/2000/svg">
<path fill-rule="evenodd" clip-rule="evenodd" d="M9.74406 11.0689C9.12314 11.2163 8.81981 11.874 9.11205 12.4391C9.35912 12.917 9.44113 12.9328 11.6836 12.934C13.8213 12.9351 14.0551 12.9554 14.1279 13.1453C14.1757 13.2696 14.9916 17.3657 15.5853 20.4615C15.786 21.5078 16.3 24.3128 16.7275 26.6949C17.284 29.7961 17.5589 31.1454 17.6957 31.4465C18.0677 32.2662 18.8664 32.8565 19.813 33.0115C20.5019 33.1244 35.4619 33.1154 36.0764 33.0019C36.9414 32.842 37.6714 32.3206 38.0792 31.5713C38.397 30.9873 41.0061 19.2857 41 18.4716C40.9923 17.4546 40.3768 16.4888 39.4446 16.0309L38.9879 15.8067L27.8164 15.7662L16.6448 15.7257L16.3489 14.2395C15.9959 12.4668 15.8848 12.1513 15.4655 11.7321C15.0874 11.3539 14.7449 11.1788 14.1707 11.07C13.682 10.9773 10.1336 10.9765 9.74406 11.0689ZM17.1221 17.9308C17.1895 18.2626 17.7136 21.1726 18.5909 26.0856C19.0202 28.4886 19.4251 30.5589 19.4908 30.686C19.7375 31.163 19.4499 31.1473 27.9378 31.1473C36.421 31.1473 36.1388 31.1627 36.3831 30.6882C36.5175 30.4272 39.1097 18.8383 39.1095 18.4997C39.1094 18.3697 39.0119 18.1692 38.8731 18.014L38.6369 17.7496L27.8568 17.7284L17.0768 17.7073L17.1221 17.9308ZM20.9558 34.3463C19.9131 34.7293 19.3847 35.9523 19.8341 36.942C20.5795 38.5831 22.9469 38.4176 23.4493 36.6893C23.8858 35.1882 22.4182 33.8092 20.9558 34.3463ZM33.7469 34.3338C33.2987 34.501 33.0618 34.6776 32.7992 35.0401C32.3096 35.716 32.3208 36.6597 32.8265 37.3235C33.7015 38.4722 35.4453 38.3079 36.0767 37.0172C36.5133 36.1248 36.2059 35.0387 35.3707 34.5222C34.9175 34.2421 34.2121 34.1602 33.7469 34.3338Z" fill="black"/>
</svg>
