<svg width="50" height="50" viewBox="0 0 50 50" fill="none" xmlns="http://www.w3.org/2000/svg">
<path fill-rule="evenodd" clip-rule="evenodd" d="M16.7004 11.0856C14.7142 11.3644 13.0382 12.2297 11.629 13.7037C9.45183 15.9811 8.54236 19.3855 9.22044 22.7196C9.56332 24.4057 10.5536 26.3594 11.9532 28.1113C13.4707 30.0107 14.9697 31.4234 20.662 36.319C22.868 38.2162 23.9781 39.1305 24.2045 39.2363C24.6632 39.4509 25.2695 39.451 25.7288 39.2367C26.2359 39.0001 33.5485 32.6882 35.4944 30.8074C37.0629 29.2915 38.5428 27.5097 39.295 26.2316C40.1822 24.7243 40.742 23.1252 40.8576 21.7688C40.8774 21.536 40.9176 21.3308 40.9468 21.3128C40.976 21.2947 41 20.915 41 20.4689C41 20.0228 40.9757 19.6729 40.9461 19.6912C40.9164 19.7095 40.8738 19.5216 40.8513 19.2736C40.754 18.2001 40.3086 16.7437 39.769 15.7349C39.3293 14.9129 38.9273 14.3554 38.3043 13.7037C37.6102 12.9777 36.8842 12.4225 36.0806 12.0035C35.3357 11.6149 34.9574 11.469 34.1999 11.2776C30.898 10.4435 27.7192 11.5093 25.4785 14.2015C25.2192 14.513 24.9888 14.7679 24.9666 14.7679C24.9444 14.7679 24.7141 14.513 24.4548 14.2015C22.4456 11.7874 19.6636 10.6696 16.7004 11.0856ZM16.843 12.9574C14.0246 13.4192 11.8977 15.4505 11.1507 18.3939C10.9127 19.3322 10.83 20.3863 10.9195 21.3421C11.1042 23.3138 11.8454 24.9518 13.4919 27.0269C14.1507 27.8572 16.4411 30.1564 17.8234 31.3748C19.2881 32.6661 24.928 37.508 24.9664 37.5073C25.0033 37.5066 30.5927 32.7097 32.0843 31.3986C33.4371 30.2095 35.7916 27.8474 36.442 27.0269C38.4782 24.4579 39.2544 22.2696 39.0129 19.7791C38.6468 16.0028 36.2519 13.3593 32.8036 12.9252C31.2996 12.7359 29.7474 13.1165 28.4526 13.9921C27.8317 14.412 26.8015 15.4856 26.2734 16.263C26.0179 16.6392 25.717 17.0088 25.6047 17.0844C25.2106 17.3493 24.6259 17.3302 24.2574 17.0404C24.1673 16.9694 23.8917 16.6115 23.6452 16.2452C23.135 15.4868 22.1037 14.4135 21.4807 13.9921C20.9194 13.6126 20.0362 13.2123 19.4142 13.0555C18.72 12.8806 17.5783 12.837 16.843 12.9574ZM9.02011 20.5387C9.02011 21.0019 9.02991 21.1914 9.04195 20.9598C9.05393 20.7281 9.05393 20.3492 9.04195 20.1176C9.02991 19.8859 9.02011 20.0754 9.02011 20.5387Z" fill="black"/>
</svg>
