<svg width="50" height="50" viewBox="0 0 50 50" fill="none" xmlns="http://www.w3.org/2000/svg">
<path fill-rule="evenodd" clip-rule="evenodd" d="M23.7387 9.01176C19.663 9.43075 16.3851 10.9465 13.6649 13.6704C11.1358 16.2027 9.61385 19.3074 9.0879 23.0072C8.98339 23.7426 8.98339 26.2099 9.0879 26.9453C9.61385 30.6451 11.1358 33.7498 13.6649 36.2822C16.194 38.8145 19.2946 40.3385 22.9896 40.8651C23.724 40.9698 26.1882 40.9698 26.9226 40.8651C30.6175 40.3385 33.7182 38.8145 36.2473 36.2822C38.7188 33.8075 40.2631 30.7177 40.7775 27.2186C40.8312 26.8532 40.8751 26.4258 40.8751 26.269C40.8751 26.1121 40.9032 25.9664 40.9376 25.9452C40.975 25.922 41 25.5057 41 24.9064C41 24.2555 40.9782 23.9197 40.9376 23.9449C40.8994 23.9685 40.8751 23.87 40.8751 23.6909C40.8751 22.8565 40.5375 21.2128 40.0875 19.8566C38.5331 15.1718 34.7477 11.3815 30.0691 9.82512C28.3209 9.24354 27.1257 9.04014 25.2682 9.00813C24.5643 8.996 23.8761 8.99763 23.7387 9.01176ZM23.8636 10.8877C20.2958 11.2625 17.3765 12.6167 14.9946 15.0018C12.8361 17.163 11.4708 19.8839 10.993 22.976C10.8597 23.8388 10.8451 25.8177 10.9653 26.7265C11.298 29.2423 12.3453 31.7518 13.8668 33.6797C14.2492 34.1642 14.3434 34.2427 14.3434 34.0774C14.3434 33.9087 14.7372 32.816 15.0096 32.2288C16.1631 29.7428 18.1575 27.8374 20.8046 26.6927L21.1792 26.5307L20.9919 26.3998C20.6136 26.1354 19.5976 25.0575 19.326 24.6325C17.7756 22.2061 17.8944 19.1435 19.6272 16.8691C20.5202 15.6969 21.8358 14.8274 23.3201 14.4282C23.8574 14.2838 24.0428 14.2653 24.9561 14.2653C25.8694 14.2653 26.0548 14.2838 26.5921 14.4282C30.2612 15.4149 32.3969 19.0514 31.4467 22.6947C31.156 23.8093 30.599 24.7669 29.7339 25.6389C29.3894 25.9862 29.0236 26.3283 28.9209 26.3992L28.7343 26.5281L28.9209 26.6064C31.6565 27.7545 33.6056 29.5604 34.8187 32.071C35.1549 32.7667 35.5688 33.8739 35.5688 34.0774C35.5688 34.2428 35.663 34.1641 36.0441 33.6805C37.574 31.7389 38.6084 29.2604 38.9463 26.7265C39.067 25.8206 39.0528 23.8407 38.9192 22.976C38.4414 19.8839 37.076 17.163 34.9176 15.0018C32.7761 12.8576 30.0282 11.468 27.0162 11.0063C26.3837 10.9093 24.3761 10.8338 23.8636 10.8877ZM24.1521 16.1662C22.2819 16.5011 20.7426 17.9239 20.2675 19.7568C20.1023 20.3942 20.0871 21.4451 20.2343 22.0583C20.7647 24.2676 22.6901 25.7889 24.9561 25.7889C26.901 25.7889 28.5367 24.7358 29.3586 22.9547C29.6711 22.2774 29.7807 21.7512 29.7772 20.9444C29.7708 19.4518 29.1939 18.2205 28.033 17.2224C27.6207 16.8679 26.7256 16.4036 26.1734 16.2578C25.7106 16.1357 24.6029 16.0854 24.1521 16.1662ZM9 24.9763C9 25.5435 9.00949 25.7756 9.02104 25.492C9.03259 25.2083 9.03259 24.7442 9.02104 24.4606C9.00949 24.177 9 24.409 9 24.9763ZM24.3006 27.7999C20.1728 28.0818 16.7308 31.1969 15.9945 35.3172C15.9458 35.5899 15.9125 35.8165 15.9206 35.8207C15.9287 35.8248 16.126 35.9758 16.3592 36.1561C18.3005 37.6576 20.7038 38.6502 23.2081 38.985C23.9716 39.087 25.9406 39.087 26.7041 38.985C29.2084 38.6502 31.6116 37.6576 33.553 36.1561C33.7862 35.9758 33.9844 35.8239 33.9937 35.8186C34.0029 35.8132 33.9524 35.5079 33.8816 35.1401C33.5525 33.4326 32.7496 31.8756 31.5498 30.6185C29.6099 28.5857 27.0976 27.6089 24.3006 27.7999Z" fill="black"/>
</svg>
