<svg width="50" height="50" viewBox="0 0 50 50" fill="none" xmlns="http://www.w3.org/2000/svg">
<path fill-rule="evenodd" clip-rule="evenodd" d="M24.1906 13.0876C23.2356 13.3501 22.4796 14.0162 22.1131 14.9183L21.9693 15.2721L18.1288 15.3033L14.2882 15.3345L14.1333 15.4906C14.0433 15.5812 12.9385 17.9235 11.4983 21.0769L9.01823 26.5072L9.02066 27.1002C9.0264 28.5254 9.67117 29.8977 10.8422 30.9771C12.5864 32.5847 15.2506 32.8861 17.336 31.7118C18.9662 30.7938 20.017 29.1456 20.1827 27.2463L20.2271 26.7371L17.9741 21.7707C16.7349 19.0392 15.7211 16.7753 15.7211 16.7398C15.7211 16.6961 16.7206 16.6806 18.8234 16.6916L21.9257 16.7077L22.0269 16.9886C22.2323 17.5592 22.3719 17.7788 22.8021 18.209C23.2218 18.6286 23.6673 18.903 24.1006 19.0088L24.2723 19.0507V26.2538V33.4567L22.4778 33.4774L20.6833 33.498L20.2776 33.6929C19.2551 34.1841 18.9433 34.8507 18.978 36.4714L18.998 37.4096L19.2019 37.5916L19.4057 37.7736H24.9034C30.2769 37.7736 30.405 37.7708 30.5742 37.6504C30.8669 37.4419 30.9061 37.2504 30.8775 36.1666C30.8536 35.255 30.8391 35.156 30.6797 34.8087C30.4568 34.3231 30.0325 33.8956 29.5534 33.6742L29.172 33.498L27.4087 33.4773L25.6455 33.4566V26.2537V19.0507L25.8171 19.0104C25.9115 18.9881 26.1764 18.8728 26.4058 18.754C27.1003 18.3944 27.5719 17.8114 27.9477 16.8482L28.0146 16.6765H31.1057C33.1719 16.6765 34.1966 16.6977 34.1966 16.7404C34.1966 16.7755 33.1828 19.0392 31.9436 21.7707L29.6906 26.7371L29.735 27.2463C30.1173 31.6278 35.0365 33.9249 38.591 31.3817C39.7168 30.5762 40.556 29.2925 40.7968 28.0075C40.8484 27.7316 40.9154 27.4572 40.9454 27.3976C41.0226 27.2445 41.016 26.5837 40.9377 26.6321C40.9034 26.6533 40.8753 26.6397 40.8753 26.6018C40.8753 26.442 35.9198 15.6332 35.7812 15.4906L35.6295 15.3345L31.7889 15.3033L27.9484 15.2721L27.8047 14.9183C27.3257 13.7398 26.1953 12.9861 24.9277 13.0002C24.6873 13.0029 24.3557 13.0422 24.1906 13.0876ZM24.5181 14.4493C23.7435 14.6663 23.2012 15.4627 23.294 16.2466C23.3928 17.0812 24.1258 17.7376 24.9589 17.7376C25.7919 17.7376 26.5249 17.0812 26.6237 16.2466C26.7583 15.1105 25.6214 14.1401 24.5181 14.4493ZM12.7063 21.8728C11.6907 24.1127 10.8411 25.9947 10.8183 26.0547C10.779 26.158 10.9844 26.1639 14.5961 26.1639C16.8535 26.1639 18.4069 26.1408 18.3946 26.1073C18.2754 25.7832 14.6214 17.8 14.5922 17.8C14.5706 17.8 13.722 19.6328 12.7063 21.8728ZM33.415 21.9254C32.3859 24.1944 31.5345 26.0762 31.5231 26.1073C31.5108 26.1408 33.0642 26.1639 35.3216 26.1639C38.9333 26.1639 39.1387 26.158 39.0994 26.0547C38.9452 25.6488 35.3568 17.8 35.3255 17.8C35.3039 17.8 34.4442 19.6564 33.415 21.9254ZM9 27.0378C9 27.2609 9.01136 27.3522 9.02515 27.2406C9.03901 27.129 9.03901 26.9465 9.02515 26.8349C9.01136 26.7233 9 26.8146 9 27.0378ZM10.4544 27.5872C10.4008 27.6741 10.7494 28.619 10.9774 29.0047C11.2819 29.5199 11.9887 30.2146 12.4981 30.4995C13.2343 30.9112 13.7702 31.0523 14.5976 31.0521C15.2036 31.052 15.3933 31.0264 15.816 30.888C16.4732 30.6727 17.0136 30.3393 17.5082 29.8438C18.0204 29.3307 18.3745 28.7876 18.5661 28.2213C18.8267 27.4509 19.3262 27.5371 14.6013 27.5371C12.3375 27.5371 10.4715 27.5597 10.4544 27.5872ZM31.2019 27.6776C31.2043 27.9303 31.4983 28.6611 31.758 29.0597C32.3306 29.9386 33.1436 30.5724 34.103 30.8878C34.5253 31.0266 34.7132 31.052 35.3201 31.052C35.9264 31.052 36.1157 31.0265 36.5386 30.888C37.1159 30.6989 37.6883 30.3701 38.152 29.9614C38.738 29.4447 39.3321 28.4212 39.4233 27.7712L39.4561 27.5371H35.3284H31.2006L31.2019 27.6776ZM21.0087 34.884C20.7775 34.92 20.4309 35.2749 20.3804 35.5272C20.3582 35.6384 20.34 35.8804 20.34 36.0649V36.4004H24.8964H29.4529V35.9263C29.4529 35.3884 29.3623 35.1753 29.0543 34.9889C28.8698 34.8772 28.6648 34.8708 25.0213 34.864C22.91 34.8601 21.1043 34.869 21.0087 34.884Z" fill="black"/>
</svg>
