<svg width="208" height="50" viewBox="0 0 208 50" fill="none" xmlns="http://www.w3.org/2000/svg">
    <path d="M207.746 0H0V50H207.746V0Z" fill="#C5222A"/>
    <path d="M15.6172 22.4811C15.6172 28.4005 19.5844 33.3753 28.7784 33.3753C33.0605 33.3753 36.1462 31.1713 38.0353 28.7154L43.6399 34.194V21.4106H33.0605C33.0605 27.4559 31.4862 30.1008 29.4081 30.1008C27.33 30.1008 25.6298 28.3375 25.6298 22.2922C25.6298 16.7506 26.8892 14.8615 31.6751 14.8615C34.9497 14.8615 41.058 16.6877 43.6399 18.199V11.5869H29.9119C19.2066 11.5869 15.6172 16.5617 15.6172 22.4811Z" fill="white"/>
    <path d="M93.1991 24.8112C93.1991 20.3401 92.1286 16.6877 83.6903 16.6877H71.6626V33.3754H79.4712V24.8112C79.4712 20.0253 80.7306 19.1437 82.3049 19.1437C83.8792 19.1437 85.1387 20.0253 85.1387 24.8112V27.3301L93.1991 24.8112Z" fill="white"/>
    <path d="M57.8087 16.1838C49.3704 16.1838 46.6626 20.466 46.6626 25C46.6626 29.471 49.3704 33.8161 57.8087 33.8161C66.247 33.8161 68.9548 29.534 68.9548 25C68.9548 20.466 66.184 16.1838 57.8087 16.1838ZM57.8087 31.3602C56.2344 31.3602 54.9749 30.4156 54.9749 25C54.9749 19.5843 56.2344 18.6398 57.8087 18.6398C59.383 18.6398 60.6425 19.5843 60.6425 25C60.6425 30.4156 59.383 31.3602 57.8087 31.3602Z" fill="white"/>
    <path d="M156.234 16.6877H144.521V33.3754H152.582V24.8112C152.582 20.0253 153.589 19.1437 155.164 19.1437C156.738 19.1437 157.746 20.0253 157.746 24.8112V33.3124H165.806V24.8112C165.743 20.3401 165.302 16.6877 156.234 16.6877Z" fill="white"/>
    <path d="M105.793 16.6877C97.3551 16.6877 95.1511 20.5291 95.1511 25.0001C95.1511 29.4711 97.3551 33.3124 105.793 33.3124C106.36 33.3124 107.683 33.3124 108.816 33.3124C108.501 36.2092 107.242 37.3427 105.353 37.3427C102.204 37.3427 98.5516 35.5165 96.6625 34.8238V39.5467C96.6625 39.5467 101.889 40.3653 105.479 40.3653C113.98 40.3653 116.436 35.8943 116.436 30.6676V16.6877C116.499 16.6877 107.431 16.6877 105.793 16.6877ZM106.108 30.8565C104.534 30.8565 103.275 29.786 103.275 25.0001C103.275 20.2142 104.534 19.1437 106.108 19.1437C107.683 19.1437 108.942 20.2142 108.942 25.0001C108.942 29.786 107.683 30.8565 106.108 30.8565Z" fill="white"/>
    <path d="M119.144 25.0001C119.144 29.4711 121.348 33.3124 129.786 33.3124C131.36 33.3124 140.428 33.3124 140.428 33.3124V16.6877C140.428 16.6877 131.36 16.6877 129.786 16.6877C121.348 16.6877 119.144 20.4661 119.144 25.0001ZM132.872 25.0001C132.872 29.786 131.612 30.8565 130.038 30.8565C128.463 30.8565 127.204 29.786 127.204 25.0001C127.204 20.2142 128.463 19.1437 130.038 19.1437C131.612 19.1437 132.872 20.2142 132.872 25.0001Z" fill="white"/>
    <path d="M182.179 16.6877V24.8112C182.179 29.5971 181.171 30.8565 179.597 30.8565C178.023 30.8565 177.015 29.5971 177.015 24.8112V16.6877H168.955V24.8112C168.955 29.2822 170.592 33.3124 179.03 33.3124H182.053C181.738 36.2092 180.479 37.3427 178.589 37.3427C175.504 37.3427 172.04 35.5165 170.214 34.8238V39.5467C170.214 39.5467 175.189 40.3653 178.778 40.3653C187.28 40.3653 190.239 35.8943 190.239 30.6676V16.6877H182.179Z" fill="white"/>
</svg>
